<svg width="48" height="48" viewBox="0 0 48 48" fill="none" xmlns="http://www.w3.org/2000/svg">
<g id="AIA" clip-path="url(#clip0_69_186)">
<path id="Vector" d="M0 9.6C0 4.29806 4.29806 0 9.6 0H38.4C43.702 0 48 4.29806 48 9.6V38.4C48 43.702 43.702 48 38.4 48H9.6C4.29806 48 0 43.702 0 38.4V9.6Z" fill="#0957F5"/>
<path id="Union" fill-rule="evenodd" clip-rule="evenodd" d="M15.5513 9.94464L15.5485 9.94447L15.5493 9.94043L15.5513 9.94464ZM15.5513 9.94464C15.5889 9.94698 15.6231 9.94856 15.6548 9.95003C15.7191 9.953 15.7736 9.95552 15.8278 9.96303L20.0571 10.6087L23.6721 11.1535C23.7941 11.1719 23.916 11.1906 24.0379 11.2092C24.3653 11.2592 24.6924 11.3092 25.02 11.3545C25.2107 11.382 25.4029 11.3985 25.5955 11.4037C25.7417 11.407 25.8897 11.4047 26.0381 11.4023C26.2175 11.3995 26.3974 11.3967 26.5753 11.4037C27.3646 11.4021 28.1519 11.3251 28.9265 11.1737C29.239 11.1307 29.5499 11.0834 29.8607 11.0361C29.9986 11.0151 30.1364 10.9941 30.2744 10.9735C30.5053 10.9401 30.7409 10.9805 30.9475 11.089C31.2554 11.2438 31.5629 11.3989 31.8704 11.554L31.8706 11.5541L31.8707 11.5542C32.5729 11.9084 33.2748 12.2626 33.9815 12.6128C34.09 12.6641 34.1829 12.7436 34.2503 12.8429C34.3177 12.9423 34.3573 13.0579 34.3648 13.1778C34.4461 13.8186 34.53 14.4584 34.6167 15.0971L35.0767 18.5088C35.087 18.582 35.0933 18.656 35.1003 18.7376C35.1037 18.7774 35.1072 18.8189 35.1114 18.8631L28.3623 19.6944C28.2579 19.0082 28.1684 18.3209 28.0789 17.6337C28.03 17.2581 27.981 16.8825 27.9297 16.5071C27.8237 15.7324 27.7216 14.9624 27.6199 14.1956L27.6199 14.1949C27.5822 13.9106 27.5445 13.6267 27.5068 13.3432C26.7597 13.2812 26.009 13.2769 25.2614 13.3303C25.1372 14.2271 25.013 15.1252 24.8888 16.0232C24.6902 17.46 24.4915 18.8969 24.2928 20.3288L17.2015 21.8051C17.1979 21.7513 17.1979 21.6974 17.2015 21.6436C17.3979 20.2226 17.5956 18.802 17.7947 17.3821C17.9787 16.0401 18.1617 14.6981 18.3435 13.3562C18.4009 12.9308 18.459 12.5038 18.5252 12.0793C18.5493 11.9886 18.5401 11.8923 18.4992 11.8079C18.4583 11.7234 18.3885 11.6565 18.3024 11.6192C17.6466 11.251 16.9963 10.8728 16.3464 10.4949L16.3456 10.4944L16.3419 10.4922C16.167 10.3905 15.9922 10.2889 15.8173 10.1874C15.7586 10.1659 15.7047 10.133 15.6587 10.0906C15.6138 10.0493 15.5774 9.99972 15.5513 9.94464ZM2.61441 27.075L2.6143 27.0751C2.57857 27.0947 2.53985 27.116 2.49567 27.1394H2.49728C2.52314 27.158 2.55009 27.175 2.57799 27.1903L6.19711 28.3469C6.43457 28.4256 6.6932 28.41 6.91948 28.3033L7.63943 27.9804C11.0586 26.4167 14.5614 25.0428 18.132 23.8649C19.9902 23.2369 21.8861 22.7264 23.8084 22.3363C23.9679 22.305 24.1304 22.2768 24.2903 22.2489L24.2908 22.2489C24.3662 22.2357 24.441 22.2227 24.5147 22.2095C21.6082 23.0732 18.7292 24.0118 15.9043 25.0966C13.0617 26.163 10.2821 27.3901 7.5789 28.7722C7.62011 28.7857 7.6586 28.7998 7.69581 28.8133L7.69597 28.8134L7.69613 28.8135L7.69618 28.8135L7.6962 28.8135C7.73462 28.8275 7.77167 28.8411 7.80892 28.8529C8.14165 28.9596 8.47477 29.0656 8.80786 29.1716L8.80848 29.1718C9.53126 29.4019 10.2539 29.6319 10.972 29.8683C11.1062 29.9165 11.2492 29.9352 11.3912 29.9232C11.5333 29.9112 11.6711 29.8688 11.7953 29.7989C13.215 29.0579 14.6363 28.3186 16.0674 27.5995C18.2538 26.4835 20.4947 25.4776 22.7818 24.5857C22.8219 24.5721 22.862 24.5588 22.9021 24.5456L22.9029 24.5453C22.9432 24.532 22.9836 24.5187 23.0239 24.505C19.5152 26.2475 16.136 28.2395 12.9123 30.4656L13.0142 30.5021C13.0792 30.5254 13.1294 30.5435 13.1795 30.56C13.5385 30.6767 13.8978 30.7918 14.257 30.9068L14.2571 30.9069L14.2573 30.9069C14.8469 31.0958 15.4362 31.2845 16.023 31.4801C16.1414 31.5264 16.2699 31.541 16.3958 31.5225C16.5216 31.5039 16.6404 31.4529 16.7405 31.3744C16.9286 31.2392 17.1215 31.1098 17.3144 30.9805L17.3144 30.9804C17.4659 30.8789 17.6173 30.7773 17.7663 30.673C20.1772 28.9901 22.6518 27.4017 25.2168 25.957C29.1895 23.7269 33.2743 21.7269 37.4293 19.8729C37.8341 19.693 38.2399 19.5155 38.6457 19.338L38.6458 19.3379C39.0209 19.1738 39.3959 19.0098 39.77 18.8439C39.7881 18.8357 39.8076 18.8291 39.8275 18.8223C39.8936 18.7999 39.964 18.776 40 18.6873C39.7809 18.6757 39.5613 18.6757 39.3422 18.6873C37.9481 18.8363 36.5544 18.9916 35.1613 19.153C34.8181 19.1932 34.4747 19.2329 34.1314 19.2725L34.1313 19.2726L34.1312 19.2726C32.8061 19.4257 31.4809 19.5789 30.1572 19.7616C28.4066 19.9997 26.6559 20.2547 24.9109 20.5445C22.2773 20.9819 19.6655 21.5283 17.0706 22.1587C14.1513 22.8657 11.2553 23.6583 8.41668 24.6487C6.47726 25.3083 4.58342 26.0951 2.74749 27.0038C2.70463 27.0255 2.66229 27.0487 2.61463 27.0749L2.61448 27.075L2.61441 27.075ZM28.9854 24.2379C31.0839 23.1427 33.2211 22.1079 35.4116 21.1023C35.4316 21.2407 35.4524 21.3714 35.4726 21.4986C35.4917 21.6182 35.5102 21.7346 35.527 21.8513L35.9871 25.3332C36.0567 25.8532 36.1257 26.3733 36.1946 26.8933L36.1947 26.8939L36.1952 26.8982C36.2915 27.6243 36.3877 28.3505 36.4859 29.0766C36.5422 29.4938 36.5996 29.9108 36.6571 30.3277L36.6573 30.3294L36.6576 30.3316C36.7359 30.8997 36.8141 31.4677 36.8895 32.0363C36.9612 32.5912 37.0355 33.1461 37.1097 33.7009L37.1097 33.7013L37.1102 33.705C37.1552 34.0413 37.2002 34.3774 37.2446 34.7135C37.2618 34.8424 37.2792 34.9715 37.2966 35.1005L37.2967 35.1012C37.3453 35.4614 37.394 35.8219 37.4391 36.1825C37.4698 36.4375 37.4448 36.4722 37.1905 36.5101C36.7967 36.5686 36.4054 36.6256 36.0147 36.6824L36.0147 36.6824C35.7209 36.7252 35.4273 36.7679 35.1332 36.8112L31.3502 37.3665C31.3101 37.3724 31.2702 37.3786 31.2303 37.3848L31.2302 37.3848C31.1441 37.3981 31.0583 37.4114 30.9717 37.4214C30.7804 37.444 30.7416 37.4214 30.7182 37.2341C30.637 36.6837 30.5603 36.1316 30.4882 35.5779C30.351 34.5766 30.2165 33.5741 30.0847 32.5706L29.6754 29.5157L29.2154 26.104L28.9854 24.3509C28.9829 24.313 28.9829 24.275 28.9854 24.2371V24.2379ZM14.9359 37.8388C14.9261 37.992 14.9261 38.1456 14.9359 38.2988C14.9945 38.2642 15.0485 38.2334 15.0992 38.2045C15.1748 38.1614 15.2431 38.1225 15.3088 38.0809L20.4533 34.7968C20.5478 34.7366 20.6422 34.6764 20.7366 34.6163C21.2071 34.3163 21.6777 34.0164 22.1483 33.7193C22.2429 33.6675 22.3243 33.5946 22.3862 33.5063C22.4481 33.418 22.4887 33.3166 22.505 33.21C22.6003 32.5056 22.6969 31.8037 22.7948 31.1042L23.2549 27.7434C23.2644 27.6754 23.2681 27.6079 23.2724 27.5283C23.2743 27.4934 23.2764 27.4562 23.2791 27.4157C23.2349 27.4397 23.1977 27.4579 23.1652 27.4739C23.1288 27.4917 23.0982 27.5068 23.07 27.5238C22.9408 27.6031 22.8108 27.681 22.6807 27.7588C22.4136 27.9188 22.1466 28.0787 21.8876 28.2502C19.9091 29.5787 17.9273 30.9027 15.9424 32.2221C15.8586 32.2725 15.7883 32.3424 15.7374 32.4259C15.6865 32.5094 15.6566 32.6039 15.6502 32.7015C15.6058 33.0788 15.552 33.4556 15.4982 33.8329C15.4765 33.9844 15.4549 34.1358 15.4339 34.2875C15.3904 34.5958 15.3468 34.9039 15.3032 35.2119C15.1792 36.0882 15.0553 36.9633 14.9359 37.8388Z" fill="white"/>
</g>
<defs>
<clipPath id="clip0_69_186">
<rect width="48" height="48" fill="white"/>
</clipPath>
</defs>
</svg>
