<svg width="32" height="32" viewBox="0 0 32 32" fill="none" xmlns="http://www.w3.org/2000/svg">
<g id="AIA" clip-path="url(#clip0_69_179)">
<path id="Vector" d="M0 6.4C0 2.86537 2.86537 0 6.4 0H25.6C29.1347 0 32 2.86537 32 6.4V25.6C32 29.1347 29.1347 32 25.6 32H6.4C2.86537 32 0 29.1347 0 25.6V6.4Z" fill="#0957F5"/>
<path id="Union" fill-rule="evenodd" clip-rule="evenodd" d="M10.3675 6.62976L10.3656 6.62964L10.3662 6.62695L10.3675 6.62976ZM10.3675 6.62976C10.3926 6.63132 10.4154 6.63237 10.4365 6.63335C10.4794 6.63534 10.5157 6.63702 10.5518 6.64202L13.3714 7.07248L15.7814 7.43569C15.8626 7.44793 15.9438 7.46034 16.025 7.47275L16.0251 7.47277L16.0253 7.47279C16.2435 7.50614 16.4616 7.53948 16.68 7.56967C16.8071 7.58802 16.9352 7.59898 17.0637 7.60249C17.1611 7.60468 17.2598 7.60312 17.3587 7.60156C17.4783 7.59967 17.5982 7.59778 17.7169 7.60249C18.243 7.60142 18.7679 7.55007 19.2843 7.44914C19.4926 7.42044 19.6999 7.3889 19.9071 7.35739L19.9074 7.35734L19.9075 7.35733C19.9993 7.34337 20.0911 7.3294 20.1829 7.31569C20.3368 7.29342 20.4939 7.32035 20.6316 7.39264C20.8365 7.49562 21.041 7.5988 21.2455 7.70197L21.2457 7.70208L21.2468 7.70262L21.2471 7.7028C21.7152 7.93896 22.1832 8.17505 22.6543 8.40853C22.7267 8.44272 22.7886 8.4957 22.8335 8.56195C22.8785 8.6282 22.9048 8.70529 22.9099 8.78519C22.964 9.21242 23.02 9.63894 23.0778 10.0647L23.3845 12.3392C23.3913 12.388 23.3955 12.4373 23.4002 12.4917V12.4917C23.4024 12.5182 23.4048 12.5459 23.4076 12.5754L18.9082 13.1296C18.8386 12.6721 18.7789 12.2139 18.7192 11.7558L18.7191 11.755C18.6865 11.5048 18.654 11.2547 18.6198 11.0048C18.5491 10.4882 18.481 9.97474 18.4132 9.46341L18.3378 8.89549C17.8398 8.85411 17.3393 8.85124 16.8409 8.88688L16.5927 10.6808C16.4602 11.6391 16.3277 12.5975 16.1952 13.5526L11.4676 14.5367C11.4652 14.5009 11.4652 14.4649 11.4676 14.4291C11.5986 13.4817 11.7304 12.5347 11.8631 11.588C11.9858 10.6934 12.1078 9.79875 12.229 8.9041C12.2672 8.62053 12.306 8.33589 12.3501 8.05286C12.3662 7.99243 12.3601 7.92822 12.3328 7.87192C12.3055 7.81563 12.259 7.771 12.2016 7.74616C11.7645 7.50075 11.3311 7.24869 10.8979 6.99678L10.8977 6.99664L10.8976 6.99659L10.8976 6.99658L10.8976 6.99658C10.78 6.9282 10.6624 6.85983 10.5448 6.7916C10.5057 6.77726 10.4698 6.75533 10.4391 6.72708C10.4092 6.69952 10.3849 6.66648 10.3675 6.62976ZM1.74291 18.05C1.71908 18.0631 1.69324 18.0773 1.66376 18.093H1.66483C1.68207 18.1053 1.70004 18.1166 1.71864 18.1269L4.13139 18.8979C4.2897 18.9504 4.46211 18.94 4.61297 18.8689L5.09293 18.6536C7.37239 17.6112 9.70761 16.6952 12.088 15.91C13.3268 15.4913 14.5907 15.1509 15.8723 14.8908C15.9786 14.87 16.087 14.8512 16.1936 14.8326C16.2439 14.8239 16.2939 14.8152 16.3431 14.8064C14.4055 15.3821 12.4861 16.0079 10.6029 16.7311C8.70779 17.442 6.85471 18.2601 5.05258 19.1815C5.08013 19.1905 5.10586 19.1999 5.13072 19.209L5.1308 19.209C5.15641 19.2184 5.1811 19.2274 5.20593 19.2353C5.42754 19.3063 5.64943 19.377 5.87129 19.4476L5.87194 19.4478L5.87205 19.4478L5.87213 19.4478C6.35404 19.6012 6.83586 19.7546 7.31466 19.9122C7.40411 19.9443 7.49942 19.9568 7.59412 19.9488C7.68882 19.9408 7.78069 19.9126 7.8635 19.8659C8.80998 19.372 9.75753 18.8791 10.7115 18.3997C12.1692 17.6557 13.6631 16.9851 15.1878 16.3905C15.2147 16.3813 15.2416 16.3725 15.2685 16.3636C15.2954 16.3547 15.3223 16.3458 15.3492 16.3367C13.0101 17.4983 10.7573 18.8263 8.6082 20.3104L8.67618 20.3347L8.67626 20.3347C8.71953 20.3503 8.75292 20.3623 8.7863 20.3733C9.02549 20.4511 9.26491 20.5278 9.50425 20.6044L9.5045 20.6045L9.50466 20.6046L9.50487 20.6046C9.89795 20.7305 10.2908 20.8563 10.682 20.9867C10.7609 21.0176 10.8466 21.0273 10.9305 21.015C11.0144 21.0026 11.0936 20.9686 11.1603 20.9162C11.2857 20.8261 11.4142 20.7399 11.5428 20.6537L11.5428 20.6537L11.5429 20.6536C11.6439 20.5859 11.7448 20.5182 11.8442 20.4487C13.4514 19.3268 15.1012 18.2678 16.8112 17.3047C19.4596 15.818 22.1828 14.4846 24.9529 13.2486C25.2225 13.1288 25.4928 13.0105 25.7631 12.8923L25.7638 12.892L25.7639 12.8919L25.7643 12.8917C26.0142 12.7824 26.2641 12.6731 26.5133 12.5626C26.5254 12.5571 26.5384 12.5527 26.5516 12.5482C26.5957 12.5333 26.6427 12.5174 26.6667 12.4582C26.5206 12.4505 26.3742 12.4505 26.2281 12.4582C25.2987 12.5576 24.3696 12.661 23.4409 12.7687C23.212 12.7955 22.9831 12.8219 22.7542 12.8484C21.8708 12.9505 20.9873 13.0526 20.1048 13.1744C18.9377 13.3331 17.7706 13.5031 16.6073 13.6963C14.8515 13.9879 13.1103 14.3522 11.3804 14.7725C9.43415 15.2438 7.50352 15.7722 5.6111 16.4324C4.31815 16.8722 3.0556 17.3967 1.83164 18.0026C1.80302 18.017 1.77475 18.0325 1.74291 18.05ZM19.3235 16.1586C20.7226 15.4284 22.1474 14.7386 23.6077 14.0682C23.621 14.1605 23.6349 14.2476 23.6484 14.3324L23.6484 14.3324L23.6485 14.3327C23.6611 14.4124 23.6735 14.4899 23.6847 14.5675L23.9914 16.8888C24.0376 17.2341 24.0834 17.5795 24.1292 17.9249L24.1297 17.9291C24.194 18.4142 24.2583 18.8993 24.3239 19.3844C24.3614 19.6623 24.3997 19.9401 24.4379 20.2178L24.4382 20.2195C24.4904 20.5988 24.5427 20.978 24.593 21.3575C24.6408 21.7276 24.6903 22.0976 24.7398 22.4675C24.7699 22.6925 24.8 22.9175 24.8297 23.1423L24.8644 23.4003L24.8645 23.4009C24.8969 23.641 24.9293 23.8813 24.9594 24.1216C24.9798 24.2917 24.9632 24.3148 24.7937 24.3401C24.5312 24.3791 24.2705 24.417 24.0102 24.4549C23.8142 24.4834 23.6183 24.5119 23.4221 24.5408L20.9001 24.911C20.8734 24.9149 20.8468 24.919 20.8202 24.9232C20.7628 24.9321 20.7055 24.941 20.6478 24.9476C20.5202 24.9627 20.4944 24.9476 20.4788 24.8228C20.4246 24.4558 20.3735 24.0877 20.3255 23.7186C20.234 23.051 20.1443 22.3827 20.0564 21.7137L19.7836 19.6771L19.4769 17.4026L19.3235 16.2339C19.3219 16.2087 19.3219 16.1833 19.3235 16.1581V16.1586ZM9.95724 25.2259C9.95068 25.328 9.95068 25.4304 9.95724 25.5326C9.99634 25.5094 10.0323 25.4889 10.0661 25.4697C10.1165 25.4409 10.162 25.415 10.2058 25.3873L13.6355 23.1978C13.6983 23.1579 13.761 23.1179 13.8237 23.0779C14.1377 22.8778 14.4516 22.6777 14.7655 22.4795C14.8286 22.445 14.8829 22.3964 14.9241 22.3375C14.9654 22.2787 14.9925 22.211 15.0033 22.14C15.0668 21.6704 15.1312 21.2025 15.1965 20.7361L15.5032 18.4956C15.5096 18.4503 15.512 18.4053 15.5149 18.3522C15.5162 18.3289 15.5176 18.3041 15.5194 18.2771C15.4899 18.2931 15.4651 18.3053 15.4435 18.3159C15.4192 18.3278 15.3988 18.3378 15.38 18.3492C15.2939 18.4021 15.2071 18.454 15.1204 18.5059C14.9423 18.6125 14.7643 18.7191 14.5917 18.8335C13.2727 19.7192 11.9515 20.6018 10.6282 21.4814C10.5724 21.515 10.5255 21.5616 10.4916 21.6173C10.4577 21.6729 10.4377 21.736 10.4334 21.801C10.4039 22.0525 10.368 22.3038 10.3321 22.5553C10.3177 22.6563 10.3033 22.7572 10.2892 22.8583C10.2602 23.064 10.2311 23.2696 10.2021 23.4751C10.1194 24.0591 10.0368 24.6423 9.95724 25.2259Z" fill="white"/>
</g>
<defs>
<clipPath id="clip0_69_179">
<rect width="32" height="32" fill="white"/>
</clipPath>
</defs>
</svg>
